<?xml version="1.0" encoding="UTF-8" standalone="no"?>
<!-- Created with Inkscape (http://www.inkscape.org/) -->

<svg
   xmlns:dc="http://purl.org/dc/elements/1.1/"
   xmlns:cc="http://creativecommons.org/ns#"
   xmlns:rdf="http://www.w3.org/1999/02/22-rdf-syntax-ns#"
   xmlns:svg="http://www.w3.org/2000/svg"
   xmlns="http://www.w3.org/2000/svg"
   xmlns:sodipodi="http://sodipodi.sourceforge.net/DTD/sodipodi-0.dtd"
   xmlns:inkscape="http://www.inkscape.org/namespaces/inkscape"
   width="1052.3622"
   height="1488.189"
   id="svg2"
   version="1.1"
   inkscape:version="0.48.4 r9939"
   sodipodi:docname="New document 1">
  <defs
     id="defs4" />
  <sodipodi:namedview
     id="base"
     pagecolor="#ffffff"
     bordercolor="#666666"
     borderopacity="1.0"
     inkscape:pageopacity="0.0"
     inkscape:pageshadow="2"
     inkscape:zoom="0.35"
     inkscape:cx="618.03386"
     inkscape:cy="609.99253"
     inkscape:document-units="px"
     inkscape:current-layer="layer1"
     showgrid="false"
     inkscape:window-width="1280"
     inkscape:window-height="962"
     inkscape:window-x="-8"
     inkscape:window-y="-8"
     inkscape:window-maximized="1" />
  <metadata
     id="metadata7">
    <rdf:RDF>
      <cc:Work
         rdf:about="">
        <dc:format>image/svg+xml</dc:format>
        <dc:type
           rdf:resource="http://purl.org/dc/dcmitype/StillImage" />
        <dc:title></dc:title>
      </cc:Work>
    </rdf:RDF>
  </metadata>
  <g
     inkscape:label="Layer 1"
     inkscape:groupmode="layer"
     id="layer1"
     transform="translate(0,435.82669)">
    <path
       sodipodi:type="arc"
       style="fill:#000000;fill-opacity:1;stroke:none"
       id="path2998"
       sodipodi:cx="374.26151"
       sodipodi:cy="189.69191"
       sodipodi:rx="43.941635"
       sodipodi:ry="43.941635"
       d="m 418.20314,189.69191 a 43.941635,43.941635 0 1 1 -87.88327,0 43.941635,43.941635 0 1 1 87.88327,0 z"
       transform="matrix(0.82712324,0,0,0.82712324,-11.579529,-303.76482)" />
    <path
       transform="matrix(0.82712324,0,0,0.82712324,-11.579529,-121.16486)"
       d="m 418.20314,189.69191 a 43.941635,43.941635 0 1 1 -87.88327,0 43.941635,43.941635 0 1 1 87.88327,0 z"
       sodipodi:ry="43.941635"
       sodipodi:rx="43.941635"
       sodipodi:cy="189.69191"
       sodipodi:cx="374.26151"
       id="path3768"
       style="fill:#000000;fill-opacity:1;stroke:none"
       sodipodi:type="arc" />
    <path
       sodipodi:type="arc"
       style="fill:#000000;fill-opacity:1;stroke:none"
       id="path3782"
       sodipodi:cx="374.26151"
       sodipodi:cy="189.69191"
       sodipodi:rx="43.941635"
       sodipodi:ry="43.941635"
       d="m 418.20314,189.69191 a 43.941635,43.941635 0 1 1 -87.88327,0 43.941635,43.941635 0 1 1 87.88327,0 z"
       transform="matrix(0.82712324,0,0,0.82712324,-11.579529,61.434761)" />
    <path
       transform="matrix(0.82712324,0,0,0.82712324,-11.579529,244.03438)"
       d="m 418.20314,189.69191 a 43.941635,43.941635 0 1 1 -87.88327,0 43.941635,43.941635 0 1 1 87.88327,0 z"
       sodipodi:ry="43.941635"
       sodipodi:rx="43.941635"
       sodipodi:cy="189.69191"
       sodipodi:cx="374.26151"
       id="path3784"
       style="fill:#000000;fill-opacity:1;stroke:none"
       sodipodi:type="arc" />
    <path
       sodipodi:type="arc"
       style="fill:#000000;fill-opacity:1;stroke:none"
       id="path3786"
       sodipodi:cx="374.26151"
       sodipodi:cy="189.69191"
       sodipodi:rx="43.941635"
       sodipodi:ry="43.941635"
       d="m 418.20314,189.69191 a 43.941635,43.941635 0 1 1 -87.88327,0 43.941635,43.941635 0 1 1 87.88327,0 z"
       transform="matrix(0.82712324,0,0,0.82712324,-11.579529,426.634)" />
    <path
       transform="matrix(0.82712324,0,0,0.82712324,-11.579529,609.23366)"
       d="m 418.20314,189.69191 a 43.941635,43.941635 0 1 1 -87.88327,0 43.941635,43.941635 0 1 1 87.88327,0 z"
       sodipodi:ry="43.941635"
       sodipodi:rx="43.941635"
       sodipodi:cy="189.69191"
       sodipodi:cx="374.26151"
       id="path3788"
       style="fill:#000000;fill-opacity:1;stroke:none"
       sodipodi:type="arc" />
    <path
       transform="matrix(0.82712324,0,0,0.82712324,171.02009,-303.76482)"
       d="m 418.20314,189.69191 a 43.941635,43.941635 0 1 1 -87.88327,0 43.941635,43.941635 0 1 1 87.88327,0 z"
       sodipodi:ry="43.941635"
       sodipodi:rx="43.941635"
       sodipodi:cy="189.69191"
       sodipodi:cx="374.26151"
       id="path3790"
       style="fill:#000000;fill-opacity:1;stroke:none"
       sodipodi:type="arc" />
    <path
       sodipodi:type="arc"
       style="fill:#000000;fill-opacity:1;stroke:none"
       id="path3792"
       sodipodi:cx="374.26151"
       sodipodi:cy="189.69191"
       sodipodi:rx="43.941635"
       sodipodi:ry="43.941635"
       d="m 418.20314,189.69191 a 43.941635,43.941635 0 1 1 -87.88327,0 43.941635,43.941635 0 1 1 87.88327,0 z"
       transform="matrix(0.82712324,0,0,0.82712324,171.02009,-121.16486)" />
    <path
       transform="matrix(0.82712324,0,0,0.82712324,171.02009,61.434761)"
       d="m 418.20314,189.69191 a 43.941635,43.941635 0 1 1 -87.88327,0 43.941635,43.941635 0 1 1 87.88327,0 z"
       sodipodi:ry="43.941635"
       sodipodi:rx="43.941635"
       sodipodi:cy="189.69191"
       sodipodi:cx="374.26151"
       id="path3794"
       style="fill:#000000;fill-opacity:1;stroke:none"
       sodipodi:type="arc" />
    <path
       sodipodi:type="arc"
       style="fill:#000000;fill-opacity:1;stroke:none"
       id="path3796"
       sodipodi:cx="374.26151"
       sodipodi:cy="189.69191"
       sodipodi:rx="43.941635"
       sodipodi:ry="43.941635"
       d="m 418.20314,189.69191 a 43.941635,43.941635 0 1 1 -87.88327,0 43.941635,43.941635 0 1 1 87.88327,0 z"
       transform="matrix(0.82712324,0,0,0.82712324,171.02009,244.03438)" />
    <path
       transform="matrix(0.82712324,0,0,0.82712324,171.02009,426.634)"
       d="m 418.20314,189.69191 a 43.941635,43.941635 0 1 1 -87.88327,0 43.941635,43.941635 0 1 1 87.88327,0 z"
       sodipodi:ry="43.941635"
       sodipodi:rx="43.941635"
       sodipodi:cy="189.69191"
       sodipodi:cx="374.26151"
       id="path3798"
       style="fill:#000000;fill-opacity:1;stroke:none"
       sodipodi:type="arc" />
    <path
       sodipodi:type="arc"
       style="fill:#000000;fill-opacity:1;stroke:none"
       id="path3800"
       sodipodi:cx="374.26151"
       sodipodi:cy="189.69191"
       sodipodi:rx="43.941635"
       sodipodi:ry="43.941635"
       d="m 418.20314,189.69191 a 43.941635,43.941635 0 1 1 -87.88327,0 43.941635,43.941635 0 1 1 87.88327,0 z"
       transform="matrix(0.82712324,0,0,0.82712324,171.02009,609.23366)" />
    <path
       sodipodi:type="arc"
       style="fill:#000000;fill-opacity:1;stroke:none"
       id="path3802"
       sodipodi:cx="374.26151"
       sodipodi:cy="189.69191"
       sodipodi:rx="43.941635"
       sodipodi:ry="43.941635"
       d="m 418.20314,189.69191 a 43.941635,43.941635 0 1 1 -87.88327,0 43.941635,43.941635 0 1 1 87.88327,0 z"
       transform="matrix(0.82712324,0,0,0.82712324,353.61971,-303.76482)" />
    <path
       transform="matrix(0.82712324,0,0,0.82712324,353.61971,-121.16486)"
       d="m 418.20314,189.69191 a 43.941635,43.941635 0 1 1 -87.88327,0 43.941635,43.941635 0 1 1 87.88327,0 z"
       sodipodi:ry="43.941635"
       sodipodi:rx="43.941635"
       sodipodi:cy="189.69191"
       sodipodi:cx="374.26151"
       id="path3804"
       style="fill:#000000;fill-opacity:1;stroke:none"
       sodipodi:type="arc" />
    <path
       sodipodi:type="arc"
       style="fill:#000000;fill-opacity:1;stroke:none"
       id="path3806"
       sodipodi:cx="374.26151"
       sodipodi:cy="189.69191"
       sodipodi:rx="43.941635"
       sodipodi:ry="43.941635"
       d="m 418.20314,189.69191 a 43.941635,43.941635 0 1 1 -87.88327,0 43.941635,43.941635 0 1 1 87.88327,0 z"
       transform="matrix(0.82712324,0,0,0.82712324,353.61971,61.434761)" />
    <path
       transform="matrix(0.82712324,0,0,0.82712324,353.61971,244.03438)"
       d="m 418.20314,189.69191 a 43.941635,43.941635 0 1 1 -87.88327,0 43.941635,43.941635 0 1 1 87.88327,0 z"
       sodipodi:ry="43.941635"
       sodipodi:rx="43.941635"
       sodipodi:cy="189.69191"
       sodipodi:cx="374.26151"
       id="path3808"
       style="fill:#000000;fill-opacity:1;stroke:none"
       sodipodi:type="arc" />
    <path
       sodipodi:type="arc"
       style="fill:#000000;fill-opacity:1;stroke:none"
       id="path3810"
       sodipodi:cx="374.26151"
       sodipodi:cy="189.69191"
       sodipodi:rx="43.941635"
       sodipodi:ry="43.941635"
       d="m 418.20314,189.69191 a 43.941635,43.941635 0 1 1 -87.88327,0 43.941635,43.941635 0 1 1 87.88327,0 z"
       transform="matrix(0.82712324,0,0,0.82712324,353.61971,426.634)" />
    <path
       transform="matrix(0.82712324,0,0,0.82712324,353.61971,609.23366)"
       d="m 418.20314,189.69191 a 43.941635,43.941635 0 1 1 -87.88327,0 43.941635,43.941635 0 1 1 87.88327,0 z"
       sodipodi:ry="43.941635"
       sodipodi:rx="43.941635"
       sodipodi:cy="189.69191"
       sodipodi:cx="374.26151"
       id="path3812"
       style="fill:#000000;fill-opacity:1;stroke:none"
       sodipodi:type="arc" />
    <path
       transform="matrix(0.82712324,0,0,0.82712324,536.21934,-303.76482)"
       d="m 418.20314,189.69191 a 43.941635,43.941635 0 1 1 -87.88327,0 43.941635,43.941635 0 1 1 87.88327,0 z"
       sodipodi:ry="43.941635"
       sodipodi:rx="43.941635"
       sodipodi:cy="189.69191"
       sodipodi:cx="374.26151"
       id="path3814"
       style="fill:#000000;fill-opacity:1;stroke:none"
       sodipodi:type="arc" />
    <path
       sodipodi:type="arc"
       style="fill:#000000;fill-opacity:1;stroke:none"
       id="path3816"
       sodipodi:cx="374.26151"
       sodipodi:cy="189.69191"
       sodipodi:rx="43.941635"
       sodipodi:ry="43.941635"
       d="m 418.20314,189.69191 a 43.941635,43.941635 0 1 1 -87.88327,0 43.941635,43.941635 0 1 1 87.88327,0 z"
       transform="matrix(0.82712324,0,0,0.82712324,536.21934,-121.16486)" />
    <path
       transform="matrix(0.82712324,0,0,0.82712324,536.21934,61.434761)"
       d="m 418.20314,189.69191 a 43.941635,43.941635 0 1 1 -87.88327,0 43.941635,43.941635 0 1 1 87.88327,0 z"
       sodipodi:ry="43.941635"
       sodipodi:rx="43.941635"
       sodipodi:cy="189.69191"
       sodipodi:cx="374.26151"
       id="path3818"
       style="fill:#000000;fill-opacity:1;stroke:none"
       sodipodi:type="arc" />
    <path
       sodipodi:type="arc"
       style="fill:#000000;fill-opacity:1;stroke:none"
       id="path3820"
       sodipodi:cx="374.26151"
       sodipodi:cy="189.69191"
       sodipodi:rx="43.941635"
       sodipodi:ry="43.941635"
       d="m 418.20314,189.69191 a 43.941635,43.941635 0 1 1 -87.88327,0 43.941635,43.941635 0 1 1 87.88327,0 z"
       transform="matrix(0.82712324,0,0,0.82712324,536.21934,244.03438)" />
    <path
       transform="matrix(0.82712324,0,0,0.82712324,536.21934,426.634)"
       d="m 418.20314,189.69191 a 43.941635,43.941635 0 1 1 -87.88327,0 43.941635,43.941635 0 1 1 87.88327,0 z"
       sodipodi:ry="43.941635"
       sodipodi:rx="43.941635"
       sodipodi:cy="189.69191"
       sodipodi:cx="374.26151"
       id="path3822"
       style="fill:#000000;fill-opacity:1;stroke:none"
       sodipodi:type="arc" />
    <path
       sodipodi:type="arc"
       style="fill:#000000;fill-opacity:1;stroke:none"
       id="path3824"
       sodipodi:cx="374.26151"
       sodipodi:cy="189.69191"
       sodipodi:rx="43.941635"
       sodipodi:ry="43.941635"
       d="m 418.20314,189.69191 a 43.941635,43.941635 0 1 1 -87.88327,0 43.941635,43.941635 0 1 1 87.88327,0 z"
       transform="matrix(0.82712324,0,0,0.82712324,536.21934,609.23366)" />
    <path
       sodipodi:type="arc"
       style="fill:#000000;fill-opacity:1;stroke:none"
       id="path3826"
       sodipodi:cx="374.26151"
       sodipodi:cy="189.69191"
       sodipodi:rx="43.941635"
       sodipodi:ry="43.941635"
       d="m 418.20314,189.69191 a 43.941635,43.941635 0 1 1 -87.88327,0 43.941635,43.941635 0 1 1 87.88327,0 z"
       transform="matrix(0.82712324,0,0,0.82712324,444.91993,-212.46542)" />
    <path
       transform="matrix(0.82712324,0,0,0.82712324,444.91993,-29.865456)"
       d="m 418.20314,189.69191 a 43.941635,43.941635 0 1 1 -87.88327,0 43.941635,43.941635 0 1 1 87.88327,0 z"
       sodipodi:ry="43.941635"
       sodipodi:rx="43.941635"
       sodipodi:cy="189.69191"
       sodipodi:cx="374.26151"
       id="path3828"
       style="fill:#000000;fill-opacity:1;stroke:none"
       sodipodi:type="arc" />
    <path
       sodipodi:type="arc"
       style="fill:#000000;fill-opacity:1;stroke:none"
       id="path3830"
       sodipodi:cx="374.26151"
       sodipodi:cy="189.69191"
       sodipodi:rx="43.941635"
       sodipodi:ry="43.941635"
       d="m 418.20314,189.69191 a 43.941635,43.941635 0 1 1 -87.88327,0 43.941635,43.941635 0 1 1 87.88327,0 z"
       transform="matrix(0.82712324,0,0,0.82712324,444.91993,152.73416)" />
    <path
       transform="matrix(0.82712324,0,0,0.82712324,444.91993,335.33379)"
       d="m 418.20314,189.69191 a 43.941635,43.941635 0 1 1 -87.88327,0 43.941635,43.941635 0 1 1 87.88327,0 z"
       sodipodi:ry="43.941635"
       sodipodi:rx="43.941635"
       sodipodi:cy="189.69191"
       sodipodi:cx="374.26151"
       id="path3832"
       style="fill:#000000;fill-opacity:1;stroke:none"
       sodipodi:type="arc" />
    <path
       sodipodi:type="arc"
       style="fill:#000000;fill-opacity:1;stroke:none"
       id="path3834"
       sodipodi:cx="374.26151"
       sodipodi:cy="189.69191"
       sodipodi:rx="43.941635"
       sodipodi:ry="43.941635"
       d="m 418.20314,189.69191 a 43.941635,43.941635 0 1 1 -87.88327,0 43.941635,43.941635 0 1 1 87.88327,0 z"
       transform="matrix(0.82712324,0,0,0.82712324,444.91993,517.93341)" />
    <path
       transform="matrix(0.82712324,0,0,0.82712324,262.32031,-212.46542)"
       d="m 418.20314,189.69191 a 43.941635,43.941635 0 1 1 -87.88327,0 43.941635,43.941635 0 1 1 87.88327,0 z"
       sodipodi:ry="43.941635"
       sodipodi:rx="43.941635"
       sodipodi:cy="189.69191"
       sodipodi:cx="374.26151"
       id="path3838"
       style="fill:#000000;fill-opacity:1;stroke:none"
       sodipodi:type="arc" />
    <path
       sodipodi:type="arc"
       style="fill:#000000;fill-opacity:1;stroke:none"
       id="path3840"
       sodipodi:cx="374.26151"
       sodipodi:cy="189.69191"
       sodipodi:rx="43.941635"
       sodipodi:ry="43.941635"
       d="m 418.20314,189.69191 a 43.941635,43.941635 0 1 1 -87.88327,0 43.941635,43.941635 0 1 1 87.88327,0 z"
       transform="matrix(0.82712324,0,0,0.82712324,262.32031,-29.865456)" />
    <path
       transform="matrix(0.82712324,0,0,0.82712324,262.32031,152.73416)"
       d="m 418.20314,189.69191 a 43.941635,43.941635 0 1 1 -87.88327,0 43.941635,43.941635 0 1 1 87.88327,0 z"
       sodipodi:ry="43.941635"
       sodipodi:rx="43.941635"
       sodipodi:cy="189.69191"
       sodipodi:cx="374.26151"
       id="path3842"
       style="fill:#000000;fill-opacity:1;stroke:none"
       sodipodi:type="arc" />
    <path
       sodipodi:type="arc"
       style="fill:#000000;fill-opacity:1;stroke:none"
       id="path3844"
       sodipodi:cx="374.26151"
       sodipodi:cy="189.69191"
       sodipodi:rx="43.941635"
       sodipodi:ry="43.941635"
       d="m 418.20314,189.69191 a 43.941635,43.941635 0 1 1 -87.88327,0 43.941635,43.941635 0 1 1 87.88327,0 z"
       transform="matrix(0.82712324,0,0,0.82712324,262.32031,335.33379)" />
    <path
       transform="matrix(0.82712324,0,0,0.82712324,262.32031,517.93341)"
       d="m 418.20314,189.69191 a 43.941635,43.941635 0 1 1 -87.88327,0 43.941635,43.941635 0 1 1 87.88327,0 z"
       sodipodi:ry="43.941635"
       sodipodi:rx="43.941635"
       sodipodi:cy="189.69191"
       sodipodi:cx="374.26151"
       id="path3846"
       style="fill:#000000;fill-opacity:1;stroke:none"
       sodipodi:type="arc" />
    <path
       sodipodi:type="arc"
       style="fill:#000000;fill-opacity:1;stroke:none"
       id="path3850"
       sodipodi:cx="374.26151"
       sodipodi:cy="189.69191"
       sodipodi:rx="43.941635"
       sodipodi:ry="43.941635"
       d="m 418.20314,189.69191 a 43.941635,43.941635 0 1 1 -87.88327,0 43.941635,43.941635 0 1 1 87.88327,0 z"
       transform="matrix(0.82712324,0,0,0.82712324,79.720689,-212.46542)" />
    <path
       transform="matrix(0.82712324,0,0,0.82712324,79.720689,-29.865456)"
       d="m 418.20314,189.69191 a 43.941635,43.941635 0 1 1 -87.88327,0 43.941635,43.941635 0 1 1 87.88327,0 z"
       sodipodi:ry="43.941635"
       sodipodi:rx="43.941635"
       sodipodi:cy="189.69191"
       sodipodi:cx="374.26151"
       id="path3852"
       style="fill:#000000;fill-opacity:1;stroke:none"
       sodipodi:type="arc" />
    <path
       sodipodi:type="arc"
       style="fill:#000000;fill-opacity:1;stroke:none"
       id="path3854"
       sodipodi:cx="374.26151"
       sodipodi:cy="189.69191"
       sodipodi:rx="43.941635"
       sodipodi:ry="43.941635"
       d="m 418.20314,189.69191 a 43.941635,43.941635 0 1 1 -87.88327,0 43.941635,43.941635 0 1 1 87.88327,0 z"
       transform="matrix(0.82712324,0,0,0.82712324,79.720689,152.73416)" />
    <path
       transform="matrix(0.82712324,0,0,0.82712324,79.720689,335.33379)"
       d="m 418.20314,189.69191 a 43.941635,43.941635 0 1 1 -87.88327,0 43.941635,43.941635 0 1 1 87.88327,0 z"
       sodipodi:ry="43.941635"
       sodipodi:rx="43.941635"
       sodipodi:cy="189.69191"
       sodipodi:cx="374.26151"
       id="path3856"
       style="fill:#000000;fill-opacity:1;stroke:none"
       sodipodi:type="arc" />
    <path
       sodipodi:type="arc"
       style="fill:#000000;fill-opacity:1;stroke:none"
       id="path3858"
       sodipodi:cx="374.26151"
       sodipodi:cy="189.69191"
       sodipodi:rx="43.941635"
       sodipodi:ry="43.941635"
       d="m 418.20314,189.69191 a 43.941635,43.941635 0 1 1 -87.88327,0 43.941635,43.941635 0 1 1 87.88327,0 z"
       transform="matrix(0.82712324,0,0,0.82712324,79.720689,517.93341)" />
    <path
       transform="matrix(0.82712324,0,0,0.82712324,-102.87893,-212.46542)"
       d="m 418.20314,189.69191 a 43.941635,43.941635 0 1 1 -87.88327,0 43.941635,43.941635 0 1 1 87.88327,0 z"
       sodipodi:ry="43.941635"
       sodipodi:rx="43.941635"
       sodipodi:cy="189.69191"
       sodipodi:cx="374.26151"
       id="path3862"
       style="fill:#000000;fill-opacity:1;stroke:none"
       sodipodi:type="arc" />
    <path
       sodipodi:type="arc"
       style="fill:#000000;fill-opacity:1;stroke:none"
       id="path3864"
       sodipodi:cx="374.26151"
       sodipodi:cy="189.69191"
       sodipodi:rx="43.941635"
       sodipodi:ry="43.941635"
       d="m 418.20314,189.69191 a 43.941635,43.941635 0 1 1 -87.88327,0 43.941635,43.941635 0 1 1 87.88327,0 z"
       transform="matrix(0.82712324,0,0,0.82712324,-102.87893,-29.865456)" />
    <path
       transform="matrix(0.82712324,0,0,0.82712324,-102.87893,152.73416)"
       d="m 418.20314,189.69191 a 43.941635,43.941635 0 1 1 -87.88327,0 43.941635,43.941635 0 1 1 87.88327,0 z"
       sodipodi:ry="43.941635"
       sodipodi:rx="43.941635"
       sodipodi:cy="189.69191"
       sodipodi:cx="374.26151"
       id="path3866"
       style="fill:#000000;fill-opacity:1;stroke:none"
       sodipodi:type="arc" />
    <path
       sodipodi:type="arc"
       style="fill:#000000;fill-opacity:1;stroke:none"
       id="path3868"
       sodipodi:cx="374.26151"
       sodipodi:cy="189.69191"
       sodipodi:rx="43.941635"
       sodipodi:ry="43.941635"
       d="m 418.20314,189.69191 a 43.941635,43.941635 0 1 1 -87.88327,0 43.941635,43.941635 0 1 1 87.88327,0 z"
       transform="matrix(0.82712324,0,0,0.82712324,-102.87893,335.33379)" />
    <path
       transform="matrix(0.82712324,0,0,0.82712324,-102.87893,517.93341)"
       d="m 418.20314,189.69191 a 43.941635,43.941635 0 1 1 -87.88327,0 43.941635,43.941635 0 1 1 87.88327,0 z"
       sodipodi:ry="43.941635"
       sodipodi:rx="43.941635"
       sodipodi:cy="189.69191"
       sodipodi:cx="374.26151"
       id="path3870"
       style="fill:#000000;fill-opacity:1;stroke:none"
       sodipodi:type="arc" />
  </g>
</svg>
