<?xml version="1.0" encoding="UTF-8" standalone="no"?>
<!-- Created with Inkscape (http://www.inkscape.org/) -->

<svg
   xmlns:dc="http://purl.org/dc/elements/1.1/"
   xmlns:cc="http://creativecommons.org/ns#"
   xmlns:rdf="http://www.w3.org/1999/02/22-rdf-syntax-ns#"
   xmlns:svg="http://www.w3.org/2000/svg"
   xmlns="http://www.w3.org/2000/svg"
   xmlns:sodipodi="http://sodipodi.sourceforge.net/DTD/sodipodi-0.dtd"
   xmlns:inkscape="http://www.inkscape.org/namespaces/inkscape"
   width="1052.3622"
   height="1488.189"
   id="svg2"
   version="1.1"
   inkscape:version="0.48.4 r9939"
   sodipodi:docname="chessboard_pattern_a3.svg">
  <defs
     id="defs4" />
  <sodipodi:namedview
     id="base"
     pagecolor="#ffffff"
     bordercolor="#666666"
     borderopacity="1.0"
     inkscape:pageopacity="0.0"
     inkscape:pageshadow="2"
     inkscape:zoom="0.24748737"
     inkscape:cx="606.14016"
     inkscape:cy="641.21367"
     inkscape:document-units="px"
     inkscape:current-layer="layer1"
     showgrid="false"
     inkscape:window-width="1280"
     inkscape:window-height="962"
     inkscape:window-x="-8"
     inkscape:window-y="-8"
     inkscape:window-maximized="1"
     borderlayer="true" />
  <metadata
     id="metadata7">
    <rdf:RDF>
      <cc:Work
         rdf:about="">
        <dc:format>image/svg+xml</dc:format>
        <dc:type
           rdf:resource="http://purl.org/dc/dcmitype/StillImage" />
        <dc:title></dc:title>
      </cc:Work>
    </rdf:RDF>
  </metadata>
  <g
     inkscape:label="Layer 1"
     inkscape:groupmode="layer"
     id="layer1"
     transform="translate(0,435.82669)">
    <g
       id="g4010"
       transform="matrix(-1.2949645,0,0,-1.2949645,2379.1134,184.98498)">
      <path
         id="rect3977"
         transform="translate(0,-435.82669)"
         d="m 1180.875,-159.375 0,100 100,0 0,-100 -100,0 z m 100,100 0,100 100,0 0,-100 -100,0 z m 100,0 100,0 0,-100 -100,0 0,100 z m 100,0 0,100 100,0 0,-100 -100,0 z m 100,0 100,0 0,-100 -100,0 0,100 z m 100,0 0,100 100,0 0,-100 -100,0 z m 0,100 -100,0 0,100 100,0 0,-100 z m 0,100 0,100 100,0 0,-100 -100,0 z m 0,100 -100,0 0,100 100,0 0,-100 z m 0,100 0,100 100,0 0,-100 -100,0 z m 0,100 -100,0 0,100 100,0 0,-100 z m 0,100 0,100 100,0 0,-100 -100,0 z m 0,100 -100,0 0,100 100,0 0,-100 z m 0,100 0,100 100,0 0,-100 -100,0 z m -100,0 -100,0 0,100 100,0 0,-100 z m -100,0 0,-100 -100,0 0,100 100,0 z m -100,0 -100,0 0,100 100,0 0,-100 z m -100,0 0,-100 -100,0 0,100 100,0 z m -100,0 -100,0 0,100 100,0 0,-100 z m 0,-100 0,-100 -100,0 0,100 100,0 z m 0,-100 100,0 0,-100 -100,0 0,100 z m 0,-100 0,-100 -100,0 0,100 100,0 z m 0,-100 100,0 0,-100 -100,0 0,100 z m 0,-100 0,-100 -100,0 0,100 100,0 z m 0,-100 100,0 0,-100 -100,0 0,100 z m 0,-100 0,-100 -100,0 0,100 100,0 z m 100,100 0,100 100,0 0,-100 -100,0 z m 100,0 100,0 0,-100 -100,0 0,100 z m 100,0 0,100 100,0 0,-100 -100,0 z m 0,100 -100,0 0,100 100,0 0,-100 z m 0,100 0,100 100,0 0,-100 -100,0 z m 0,100 -100,0 0,100 100,0 0,-100 z m 0,100 0,100 100,0 0,-100 -100,0 z m -100,0 -100,0 0,100 100,0 0,-100 z m 0,-100 0,-100 -100,0 0,100 100,0 z"
         style="fill:#000000;fill-opacity:1;stroke:none"
         inkscape:connector-curvature="0" />
    </g>
  </g>
</svg>
